<?xml version="1.0" encoding="UTF-8"?>
<!DOCTYPE svg PUBLIC "-//W3C//DTD SVG 1.1//EN" "http://www.w3.org/Graphics/SVG/1.1/DTD/svg11.dtd">
<svg xmlns="http://www.w3.org/2000/svg" version="1.1" width="512px" height="512px" style="shape-rendering:geometricPrecision; text-rendering:geometricPrecision; image-rendering:optimizeQuality; fill-rule:evenodd; clip-rule:evenodd" xmlns:xlink="http://www.w3.org/1999/xlink">
<g><path fill="#0e2a34" stroke="#0e2a34" stroke-width="0.5" d="M 100.02,0 c 104.32,0 208.64,0 312.96,0 c 0.01,0.42 0.22,0.72 0.62,0.89 c 24.93,1.15 54.53,16.43 70.4,35.64 c 13.55,13.15 22.24,33.06 26.9,51.09 c 0.37,0.88 -0.59,4.7 1.1,4.4 c 0,109.65 0,219.31 0,328.96 c -2.02,-0.26 -0.08,4.31 -1.76,5.69 c -3.78,17.63 -13.54,37.01 -26.24,49.8 c -11.8,15.09 -43.08,34.08 -62.4,34.54 c -0.45,0.18 -0.65,0.51 -0.62,0.99 c -109.65,0 -219.31,0 -328.96,0 c 0.37,-1.99 -4.34,-0.04 -5.67,-1.75 c -17.65,-3.8 -37.02,-13.54 -49.82,-26.25 c -18.53,-14.49 -35.46,-46.9 -35.57,-70.47 c -0.18,-0.44 -0.5,-0.62 -0.96,-0.55 c 0,-104.32 0,-208.64 0,-312.96 c 0.43,0.04 0.73,-0.14 0.9,-0.55 c 1.23,-25.24 16.28,-54.36 35.63,-70.47 c 14.62,-15.07 42.01,-27.56 62.86,-28.09 c 0.44,-0.15 0.65,-0.46 0.63,-0.91 Z M 261.95,175.01 c -0.13,1.21 0.91,2.53 1.99,1.35 c 0.5,-1.68 0.78,-3.38 0.85,-5.1 c 4.68,-1.17 4.45,-2.09 4.28,-6.82 c 0.36,-3.24 -3.34,-2.73 -5.47,-3.1 c -0.44,0.17 -0.77,0.46 -0.98,0.89 c -0.47,4.24 -0.69,8.5 -0.67,12.78 Z M 231.95,171.85 c 1.29,0.1 1.92,5.12 2.82,5.97 c 1.23,0.8 2.39,0.68 3.45,-0.34 c 0.47,-3.06 -1.6,-10.51 -2.42,-13.74 c -2.29,-1.99 -1.68,3.03 -1.74,3.86 c -1.91,1.65 -0.49,-4.8 -4.42,-3.31 c -1.17,0.2 -1.61,0.88 -1.35,2.04 c 0.72,3.96 1.42,7.92 2.09,11.88 c 0.73,1.07 1.5,1.1 2.29,0.08 c -0.46,-2.11 -0.7,-4.26 -0.72,-6.44 Z M 278.93,177.03 c 0.43,1.19 1.17,1.39 2.22,0.6 c 0.59,-1.91 0.97,-3.87 1.16,-5.87 c 0.9,-0.64 1.43,-0.39 1.6,0.77 c -0.53,1.91 -0.77,3.86 -0.72,5.84 c 0.87,0.92 1.65,0.85 2.36,-0.2 c 0.75,-4.02 1.45,-8.05 2.12,-12.09 c 0.21,-1.54 -0.44,-2.14 -1.95,-1.83 c -1.15,0.91 -0.61,3.48 -1.26,4.79 c -0.78,0.71 -1.25,0.53 -1.42,-0.53 c 0,-1.41 0.16,-2.79 0.49,-4.15 c -0.56,-1.06 -1.32,-1.28 -2.3,-0.66 c -0.91,4.41 -1.68,8.86 -2.3,13.33 Z M 210.33,171.07 c 0.36,2.98 2.48,8.4 3.66,11.38 c 1.65,1.33 3.38,1.4 5.18,0.21 c 2.52,-2.29 -1.63,-10.11 -2.33,-12.97 c -1.95,-2.5 -5.54,-1.25 -6.51,1.38 Z M 297.29,181.99 c 0.74,0.91 1.53,0.98 2.37,0.2 c 1.17,-4.14 3.13,-7.85 5.9,-11.15 c 0.57,-1.63 0.04,-2.17 -1.59,-1.62 c -0.88,1.39 -1.71,2.81 -2.47,4.27 c -0.08,-1.77 -0.17,-3.54 -0.29,-5.3 c -0.76,-0.77 -1.43,-0.7 -2.02,0.2 c -0.21,5.03 -0.27,8.61 -1.9,13.4 Z M 213.02,171.99 c 0.15,-2.03 0.76,-2.17 1.84,-0.41 c 0.19,1.9 3.7,8.74 2.42,10.12 c -2.07,0.37 -3.18,-8.11 -4.26,-9.71 Z M 196.85,175.98 c 0.81,2.1 4.39,13.1 6.49,12.81 c 2.33,-1.88 -3.34,-10.28 -3.88,-12.88 c -0.91,-1.16 -1.78,-1.14 -2.61,0.07 Z M 311.85,186.94 c 0.09,0.7 0.38,1.3 0.86,1.8 c 6.33,3.52 7.32,-3.89 5.29,-8.24 c -0.17,-1.21 0.1,-2.3 0.83,-3.25 c 2.16,-0.31 0.3,1.99 0.48,3.06 c 0.48,0.72 1.13,0.91 1.95,0.56 c 4.75,-5.04 -4.69,-9.87 -6,-2.21 c 0.23,2.03 0.64,4.03 1.26,5.98 c -0.19,1.04 -0.68,4.15 -2.34,2.64 c -0.25,-1.38 1.73,-3.32 0.21,-4.29 c -2.13,-0.46 -2.43,2.51 -2.54,3.95 Z M 180.05,184.99 c 0.09,0.36 0.3,0.61 0.64,0.76 c 0.92,-0.01 1.81,0.1 2.67,0.31 c 1.76,2.96 3.52,5.92 5.27,8.89 c 1.55,1.43 2.93,-0.24 1.82,-2.03 c -1.74,-2.76 -3.37,-5.58 -4.88,-8.46 c 0.13,-0.74 0.44,-1.41 0.92,-2.01 c 0.84,-3.34 -6.09,1.47 -6.44,2.54 Z M 326.26,195.04 c 0.15,1.45 2.01,1.49 2.72,0.4 c 0.71,-2.32 7.98,-10.47 5.4,-12.24 c -1.87,-0.17 -6.68,10.08 -8.12,11.84 Z M 166.99,194.02 c 0.03,0.63 0.21,1.21 0.54,1.75 c 1.97,3.45 4.03,6.84 6.17,10.18 c 3.27,0.92 0.88,-2.41 0.66,-3.53 c 0.18,-1.02 0.74,-1.25 1.67,-0.71 c 0.66,0.84 1.51,1.27 2.55,1.31 c 0.79,-0.64 0.84,-1.37 0.14,-2.18 c -2.87,-2.76 -5.76,-5.5 -8.65,-8.23 c -1.35,-0.33 -2.37,0.14 -3.08,1.41 Z M 337.92,202.01 c 0.32,1.74 0.88,3.41 1.68,5.01 c 1.7,2.23 1.9,-0.2 2.42,-1.31 c 2.65,-2.2 12.23,-10.99 5.4,-13.62 c -3.13,-1.19 -8.73,7.7 -9.5,9.92 Z M 143.01,308.99 c -22.05,13.34 -47.32,15.66 -72.56,15.1 c -0.46,-0.06 -0.82,0.09 -1.09,0.44 c 0.44,0.76 1.03,1.36 1.8,1.81 c 21.8,13.14 45.81,18.33 70.85,12.15 c 21.16,-4.2 42.55,-17.12 64.45,-13.37 c 0.61,0.61 0.51,1.12 -0.29,1.55 c -24,4.86 -26.46,33.07 -4.44,42.01 c 38.03,15.67 97.79,-15.39 134.61,-27.99 c 29.51,-11.88 67.88,-11.71 95.56,4.7 c 0.33,0.2 0.62,0.18 0.88,-0.07 c -1.19,-1.97 -2.57,-3.83 -4.14,-5.57 c -15.05,-17.09 -33.94,-26.7 -56.66,-28.81 c 3.68,-119.76 -154.37,-160.57 -213.96,-59.54 c -10.45,17.79 -15.46,36.98 -15.01,57.59 Z M 340.17,202.79 c 1.08,-1.75 5.21,-8.49 7.2,-8.57 c 1.23,0.93 -5.3,9.64 -7.2,8.57 Z M 364.08,310.68 c -32.29,-0.12 -64.74,17.29 -96.33,3.95 c -38.32,-14.34 -9.68,-65.43 28.09,-36.91 c 2.62,2.08 5.19,4.19 7.72,6.33 c 0.45,-0.36 0.58,-0.83 0.41,-1.41 c -10.85,-31 -39.52,-44.52 -70.99,-36.19 c -35.88,8.7 -52.89,36.76 -81.21,56.82 c -0.85,-0.14 -1.23,-0.67 -1.16,-1.56 c 8.38,-118.79 179.26,-137.19 210.71,-20.52 c 1.92,7.87 4.27,21.76 2.76,29.49 Z M 151.91,208 c 0.22,0.6 0.56,1.13 1.02,1.58 c 2.85,2.74 5.75,5.41 8.7,8.02 c 3.81,-0.16 -0.75,-4.13 -1.67,-4.99 c -0.78,-1.31 -0.44,-1.63 1,-0.98 c 1.27,0.61 4.08,4.73 5.08,1.86 c -0.22,-1.78 -3.65,-4.31 -5.4,-4.61 c -0.43,-0.89 -0.89,-1.78 -1.37,-2.66 c -3.17,-3.58 -5.08,-1.07 -7.36,1.78 Z M 363.99,206.76 c -1.02,-0.89 -2.01,-1.8 -2.98,-2.72 c -0.76,-0.23 -1.47,-0.11 -2.12,0.35 c -2.13,3.21 -11.24,7.79 -6.97,12.15 c 4.07,3.03 9.26,-5.75 12.24,-7.73 c 0.23,-0.7 0.17,-1.39 -0.17,-2.05 Z M 155.15,207.97 c 0.27,-2.4 3.11,0.45 3.38,1.54 c -1.33,1.06 -2.55,-0.62 -3.38,-1.54 Z M 361.32,226.02 c 0.4,1.22 1.01,2.33 1.86,3.33 c 1.04,0.93 1.64,0.71 1.79,-0.67 c -1.32,-2.08 1.13,-3.37 2.69,-4.24 c 0.98,0.3 1.9,0.74 2.76,1.3 c 1.89,-0.91 -2.34,-3.56 2.09,-4.67 c 0.96,0.4 1.88,0.86 2.75,1.37 c 1.8,-1.01 -1.47,-5.61 -3.37,-4.33 c -3.56,2.59 -7.09,5.22 -10.57,7.91 Z M 140.8,221.01 c 0.37,2 7.35,7.77 9.02,9.73 c 0.75,0.4 1.35,0.24 1.79,-0.45 c -0.32,-1.05 -0.82,-2 -1.52,-2.88 c -0.03,-0.86 0.38,-1.23 1.24,-1.11 c 1.16,0.75 4.89,1.31 2.99,-1.16 c -3.46,-1.86 -6.88,-3.79 -10.27,-5.78 c -1.65,-0.61 -2.73,-0.06 -3.25,1.65 Z M 130.09,237.95 c 2.01,1.2 10.54,6.62 12.38,6.21 c 2.2,-2.09 -1.99,-2.85 -3.08,-4.01 c -0.02,-1.49 -0.22,-2.95 -0.6,-4.39 c -1.63,-1.26 -4.56,-3.68 -6.55,-2.02 c -1.15,1.19 -1.87,2.6 -2.15,4.21 Z M 385.98,248.21 c 0.28,0.25 0.55,0.5 0.82,0.75 c -0.3,3.9 2.77,2.44 4.12,0.5 c 1.02,-4.61 -2.97,-6.48 -6.29,-3.39 c -0.71,1.65 -1.45,3.29 -2.21,4.91 c -0.7,0.44 -3.69,2.85 -3.55,0.62 c 0.59,-0.87 1.36,-1.51 2.33,-1.94 c 0.76,-0.95 0.54,-1.52 -0.66,-1.7 c -5.08,0.15 -5.06,7.18 -0.18,6.89 c 4.28,-1.05 4.06,-3.05 5.62,-6.64 Z M 122.63,253.99 c 3.85,1.93 7.82,3.62 11.9,5.06 c 1.83,0.43 2.28,-2.6 2.98,-3.75 c 0.02,-0.7 -0.31,-1.11 -0.99,-1.22 c -0.82,0.49 -1.54,1.1 -2.16,1.83 c -1.49,-0.04 -2.78,-0.56 -3.89,-1.56 c 0.34,-1.03 0.96,-3.82 -1.12,-2.66 c -0.69,1.91 -1.89,2.26 -3.6,1.07 c -1.33,-0.85 1.25,-3.95 -1.1,-3.57 c -1.32,0.97 -2.02,3.18 -2.02,4.8 Z M 101.66,330.68 c 21.73,-1.17 49.94,-14.69 66.45,-28.99 c 25.53,-22.32 44.03,-45.95 80.55,-49.32 c 10.97,-0.91 21.19,1.4 30.67,6.95 c 0.55,0.37 2.15,1.05 1.34,1.9 c -63.78,-22.73 -79.73,60.98 -18.66,72.19 c 29.76,5.15 55.85,-3.51 84.17,-10.72 c 13.14,-3.14 26.35,-3.47 39.63,-0.99 c 3.4,0.76 6.74,1.69 10.01,2.79 c -0.36,0.34 -0.79,0.5 -1.29,0.49 c -65.06,-8.32 -117.54,46.31 -181.4,38.09 c -31.8,-4.76 -17.24,-39.04 11.78,-26.35 c 4.26,2.18 7.94,5.11 11.04,8.77 c 0.43,0.8 0.91,1.54 1.46,2.23 c 2.04,-2.71 -4.28,-13.74 -6.2,-16.37 c -20.86,-26.68 -56.99,-10.99 -82.9,-2.75 c -15.16,4.3 -29.24,5.07 -44.89,3.39 c -0.89,-0.04 -1.48,-0.47 -1.76,-1.31 Z M 382.68,265.99 c 0.05,2.08 0.25,4.18 2.84,4.24 c 4.01,-0.88 7.93,-2.06 11.75,-3.53 c 1.27,-1.27 -0.54,-2.09 -1.74,-1.72 c -3.02,1.04 -6.07,1.96 -9.17,2.73 c -1.22,0.56 -3.11,-0.4 -1.75,-1.39 c 3.45,-0.99 6.9,-1.94 10.34,-2.85 c 1.52,-0.81 1.83,-3.03 -0.36,-2.73 c -3.39,0.98 -6.76,2.01 -10.12,3.09 c -1.02,0.37 -1.61,1.09 -1.79,2.16 Z M 116.31,271.65 c 0.84,0.43 1.72,0.77 2.63,1.02 c 3.51,0.94 7.03,1.76 10.58,2.46 c 1.31,-0.28 1.56,-0.93 0.75,-1.95 c -1.52,-0.54 -3.06,-0.99 -4.62,-1.36 c -0.9,-1 -0.66,-1.52 0.69,-1.56 c 1.64,0.23 3.36,1.14 5.01,0.61 c 2.15,-1.94 -2.72,-2.43 -3.89,-2.79 c -1.14,-0.23 -2.23,-0.17 -3.29,0.2 c -1.24,-1.72 -4.88,-3.1 -6.46,-1.2 c -0.71,1.45 -1.18,2.97 -1.4,4.57 Z M 231.2,292 c 0.9,-13.8 8.02,-22.45 21.34,-25.97 c 0.86,0.06 1.98,-0.73 2.44,0.39 c -2.53,2.5 -4.92,5.14 -7.18,7.92 c -14.01,20.26 -2.07,41.71 19.29,49.04 c 3.1,1.04 6.23,2.02 9.36,2.93 c 0.8,0 1.59,0.02 2.37,0.08 c -0.37,0.24 -0.78,0.36 -1.23,0.36 c -22.43,-0.31 -44.38,-9.72 -46.39,-34.75 Z M 386.23,281.03 c 0.01,0.78 0.36,1.31 1.08,1.58 c 1.4,-0.29 2.81,-0.52 4.24,-0.68 c 1.33,0.16 1.51,0.68 0.54,1.56 c -1.67,0.27 -3.27,0.71 -4.8,1.34 c -0.39,0.75 -0.26,1.37 0.39,1.87 c 2.37,-0.31 4.78,-0.68 6.79,-2.03 c 2.12,0.71 4.14,0.5 6.06,-0.62 c 0.82,-1.14 1.12,-6.11 -1.08,-5.77 c -3.98,0.54 -7.94,1.16 -11.89,1.86 c -0.59,0.08 -1.04,0.38 -1.33,0.89 Z M 112.78,289.08 c 0.01,0.47 0.22,0.81 0.64,1.04 c 3.22,0.93 8.52,1.03 12.09,1.87 c 1.68,-0.07 2.07,-0.79 1.17,-2.16 c -1.34,-0.39 -2.72,-0.68 -4.12,-0.85 c -1.37,-0.83 -0.32,-2.47 -1.37,-3.66 c -2.29,-1.37 -4.71,-1.65 -7.24,-0.82 c -0.83,1.39 -1.22,2.92 -1.17,4.58 Z M 115.02,287.01 c 0.44,-1.16 5.16,-0.66 4.72,1.3 c -1.27,0.43 -4.36,0.43 -4.72,-1.3 Z M 388.03,297.03 c -0.08,0.7 0.14,1.27 0.67,1.71 c 1.9,-0.02 3.8,0.06 5.68,0.25 c 0.35,0.91 0.78,1.78 1.29,2.6 c 0.38,0.02 0.67,-0.15 0.86,-0.49 c 0.26,-2.74 1.64,-3.51 4.13,-2.31 c 0.23,0.88 0.39,4.44 2.08,2.5 c 0.22,-1.2 0.54,-4.21 -0.46,-5.09 c -3.92,-0.19 -7.85,-0.21 -11.79,-0.04 c -0.98,-0.1 -1.8,0.19 -2.46,0.87 Z"/></g>
<g><path fill="#edece4" d="M 130.09,237.95 c 0.28,-1.61 1,-3.02 2.15,-4.21 c 1.99,-1.66 4.92,0.76 6.55,2.02 c 0.38,1.44 0.58,2.9 0.6,4.39 c 1.09,1.16 5.28,1.92 3.08,4.01 c -1.84,0.41 -10.37,-5.01 -12.38,-6.21 Z M 132.92,236 c 0.21,1.59 2.91,2.86 4.35,2.89 c 1.27,-1.71 -3.85,-4.13 -4.35,-2.89 Z M 116.31,271.65 c 0.22,-1.6 0.69,-3.12 1.4,-4.57 c 1.58,-1.9 5.22,-0.52 6.46,1.2 c 1.06,-0.37 2.15,-0.43 3.29,-0.2 c 1.17,0.36 6.04,0.85 3.89,2.79 c -1.65,0.53 -3.37,-0.38 -5.01,-0.61 c -1.35,0.04 -1.59,0.56 -0.69,1.56 c 1.56,0.37 3.1,0.82 4.62,1.36 c 0.81,1.02 0.56,1.67 -0.75,1.95 c -3.55,-0.7 -7.07,-1.52 -10.58,-2.46 c -0.91,-0.25 -1.79,-0.59 -2.63,-1.02 Z M 118.92,269.02 c 0.05,1.78 2.87,2.59 4.03,1.45 c -0.02,-1.8 -2.86,-2.56 -4.03,-1.45 Z M 386.23,281.03 c 0.29,-0.51 0.74,-0.81 1.33,-0.89 c 3.95,-0.7 7.91,-1.32 11.89,-1.86 c 2.2,-0.34 1.9,4.63 1.08,5.77 c -1.92,1.12 -3.94,1.33 -6.06,0.62 c -2.01,1.35 -4.42,1.72 -6.79,2.03 c -0.65,-0.5 -0.78,-1.12 -0.39,-1.87 c 1.53,-0.63 3.13,-1.07 4.8,-1.34 c 0.97,-0.88 0.79,-1.4 -0.54,-1.56 c -1.43,0.16 -2.84,0.39 -4.24,0.68 c -0.72,-0.27 -1.07,-0.8 -1.08,-1.58 Z M 395.01,282 c 0.32,1.59 2.98,1.05 3.81,0.16 c 1.25,-1.84 -3.16,-2.01 -3.81,-0.16 Z"/></g>
<g><path fill="#f0eee4" d="M 361.32,226.02 c 3.48,-2.69 7.01,-5.32 10.57,-7.91 c 1.9,-1.28 5.17,3.32 3.37,4.33 c -0.87,-0.51 -1.79,-0.97 -2.75,-1.37 c -4.43,1.11 -0.2,3.76 -2.09,4.67 c -0.86,-0.56 -1.78,-1 -2.76,-1.3 c -1.56,0.87 -4.01,2.16 -2.69,4.24 c -0.15,1.38 -0.75,1.6 -1.79,0.67 c -0.85,-1 -1.46,-2.11 -1.86,-3.33 Z"/></g>
<g><path fill="#f3f0e5" d="M 361.01,204.04 c 0.23,0.75 0.12,1.45 -0.33,2.09 c -2.38,2.29 -4.76,4.57 -7.16,6.84 c -0.77,1.79 -0.27,2.29 1.5,1.5 c 2.25,-1.85 6.32,-7.1 8.97,-7.71 c 0.34,0.66 0.4,1.35 0.17,2.05 c -2.98,1.98 -8.17,10.76 -12.24,7.73 c -4.27,-4.36 4.84,-8.94 6.97,-12.15 c 0.65,-0.46 1.36,-0.58 2.12,-0.35 Z M 140.8,221.01 c 0.52,-1.71 1.6,-2.26 3.25,-1.65 c 3.39,1.99 6.81,3.92 10.27,5.78 c 1.9,2.47 -1.83,1.91 -2.99,1.16 c -0.86,-0.12 -1.27,0.25 -1.24,1.11 c 0.7,0.88 1.2,1.83 1.52,2.88 c -0.44,0.69 -1.04,0.85 -1.79,0.45 c -1.67,-1.96 -8.65,-7.73 -9.02,-9.73 Z M 144.09,222.09 c 1.05,1.41 2.24,2.69 3.58,3.85 c 0.85,-0.04 1.23,-0.48 1.13,-1.32 c -1.27,-1.4 -2.84,-2.25 -4.71,-2.53 Z"/></g>
<g><path fill="#edebe1" d="M 337.92,202.01 c 0.77,-2.22 6.37,-11.11 9.5,-9.92 c 6.83,2.63 -2.75,11.42 -5.4,13.62 c -0.52,1.11 -0.72,3.54 -2.42,1.31 c -0.8,-1.6 -1.36,-3.27 -1.68,-5.01 Z M 340.17,202.79 c 1.9,1.07 8.43,-7.64 7.2,-8.57 c -1.99,0.08 -6.12,6.82 -7.2,8.57 Z"/></g>
<g><path fill="#edebe1" d="M 166.99,194.02 c 0.71,-1.27 1.73,-1.74 3.08,-1.41 c 2.89,2.73 5.78,5.47 8.65,8.23 c 0.7,0.81 0.65,1.54 -0.14,2.18 c -1.04,-0.04 -1.89,-0.47 -2.55,-1.31 c -0.93,-0.54 -1.49,-0.31 -1.67,0.71 c 0.22,1.12 2.61,4.45 -0.66,3.53 c -2.14,-3.34 -4.2,-6.73 -6.17,-10.18 c -0.33,-0.54 -0.51,-1.12 -0.54,-1.75 Z M 170.35,196.33 c 0.68,1.33 1.09,3.64 2.99,3.58 c 1.16,-1.46 -2.36,-2.67 -2.99,-3.58 Z"/></g>
<g><path fill="#ebeae3" d="M 297.29,181.99 c 1.63,-4.79 1.69,-8.37 1.9,-13.4 c 0.59,-0.9 1.26,-0.97 2.02,-0.2 c 0.12,1.76 0.21,3.53 0.29,5.3 c 0.76,-1.46 1.59,-2.88 2.47,-4.27 c 1.63,-0.55 2.16,-0.01 1.59,1.62 c -2.77,3.3 -4.73,7.01 -5.9,11.15 c -0.84,0.78 -1.63,0.71 -2.37,-0.2 Z M 112.78,289.08 c -0.05,-1.66 0.34,-3.19 1.17,-4.58 c 2.53,-0.83 4.95,-0.55 7.24,0.82 c 1.05,1.19 0,2.83 1.37,3.66 c 1.4,0.17 2.78,0.46 4.12,0.85 c 0.9,1.37 0.51,2.09 -1.17,2.16 c -3.57,-0.84 -8.87,-0.94 -12.09,-1.87 c -0.42,-0.23 -0.63,-0.57 -0.64,-1.04 Z M 115.02,287.01 c 0.36,1.73 3.45,1.73 4.72,1.3 c 0.44,-1.96 -4.28,-2.46 -4.72,-1.3 Z"/></g>
<g><path fill="#f0efe7" d="M 210.33,171.07 c 0.97,-2.63 4.56,-3.88 6.51,-1.38 c 0.7,2.86 4.85,10.68 2.33,12.97 c -1.8,1.19 -3.53,1.12 -5.18,-0.21 c -1.18,-2.98 -3.3,-8.4 -3.66,-11.38 Z M 213.02,171.99 c 1.08,1.6 2.19,10.08 4.26,9.71 c 1.28,-1.38 -2.23,-8.22 -2.42,-10.12 c -1.08,-1.76 -1.69,-1.62 -1.84,0.41 Z"/></g>
<g><path fill="#efede4" d="M 278.93,177.03 c 0.62,-4.47 1.39,-8.92 2.3,-13.33 c 0.98,-0.62 1.74,-0.4 2.3,0.66 c -0.33,1.36 -0.49,2.74 -0.49,4.15 c 0.17,1.06 0.64,1.24 1.42,0.53 c 0.65,-1.31 0.11,-3.88 1.26,-4.79 c 1.51,-0.31 2.16,0.29 1.95,1.83 c -0.67,4.04 -1.37,8.07 -2.12,12.09 c -0.71,1.05 -1.49,1.12 -2.36,0.2 c -0.05,-1.98 0.19,-3.93 0.72,-5.84 c -0.17,-1.16 -0.7,-1.41 -1.6,-0.77 c -0.19,2 -0.57,3.96 -1.16,5.87 c -1.05,0.79 -1.79,0.59 -2.22,-0.6 Z M 180.05,184.99 c 0.35,-1.07 7.28,-5.88 6.44,-2.54 c -0.48,0.6 -0.79,1.27 -0.92,2.01 c 1.51,2.88 3.14,5.7 4.88,8.46 c 1.11,1.79 -0.27,3.46 -1.82,2.03 c -1.75,-2.97 -3.51,-5.93 -5.27,-8.89 c -0.86,-0.21 -1.75,-0.32 -2.67,-0.31 c -0.34,-0.15 -0.55,-0.4 -0.64,-0.76 Z M 151.91,208 c 2.28,-2.85 4.19,-5.36 7.36,-1.78 c 0.48,0.88 0.94,1.77 1.37,2.66 c 1.75,0.3 5.18,2.83 5.4,4.61 c -1,2.87 -3.81,-1.25 -5.08,-1.86 c -1.44,-0.65 -1.78,-0.33 -1,0.98 c 0.92,0.86 5.48,4.83 1.67,4.99 c -2.95,-2.61 -5.85,-5.28 -8.7,-8.02 c -0.46,-0.45 -0.8,-0.98 -1.02,-1.58 Z M 155.15,207.97 c 0.83,0.92 2.05,2.6 3.38,1.54 c -0.27,-1.09 -3.11,-3.94 -3.38,-1.54 Z M 122.63,253.99 c 0,-1.62 0.7,-3.83 2.02,-4.8 c 2.35,-0.38 -0.23,2.72 1.1,3.57 c 1.71,1.19 2.91,0.84 3.6,-1.07 c 2.08,-1.16 1.46,1.63 1.12,2.66 c 1.11,1 2.4,1.52 3.89,1.56 c 0.62,-0.73 1.34,-1.34 2.16,-1.83 c 0.68,0.11 1.01,0.52 0.99,1.22 c -0.7,1.15 -1.15,4.18 -2.98,3.75 c -4.08,-1.44 -8.05,-3.13 -11.9,-5.06 Z M 388.03,297.03 c 0.66,-0.68 1.48,-0.97 2.46,-0.87 c 3.94,-0.17 7.87,-0.15 11.79,0.04 c 1,0.88 0.68,3.89 0.46,5.09 c -1.69,1.94 -1.85,-1.62 -2.08,-2.5 c -2.49,-1.2 -3.87,-0.43 -4.13,2.31 c -0.19,0.34 -0.48,0.51 -0.86,0.49 c -0.51,-0.82 -0.94,-1.69 -1.29,-2.6 c -1.88,-0.19 -3.78,-0.27 -5.68,-0.25 c -0.53,-0.44 -0.75,-1.01 -0.67,-1.71 Z"/></g>
<g><path fill="#d8d7d1" d="M 231.95,171.85 c 0.14,-0.46 0.2,-0.92 0.17,-1.4 c -0.58,-1.75 -0.91,-1.71 -1,0.12 c -0.01,0.65 0.27,1.07 0.83,1.28 c 0.02,2.18 0.26,4.33 0.72,6.44 c -0.79,1.02 -1.56,0.99 -2.29,-0.08 c -0.67,-3.96 -1.37,-7.92 -2.09,-11.88 c -0.26,-1.16 0.18,-1.84 1.35,-2.04 c 3.93,-1.49 2.51,4.96 4.42,3.31 c 0.06,-0.83 -0.55,-5.85 1.74,-3.86 c 0.82,3.23 2.89,10.68 2.42,13.74 c -1.06,1.02 -2.22,1.14 -3.45,0.34 c -0.9,-0.85 -1.53,-5.87 -2.82,-5.97 Z"/></g>
<g><path fill="#ecebe4" d="M 261.95,175.01 c -0.02,-4.28 0.2,-8.54 0.67,-12.78 c 0.21,-0.43 0.54,-0.72 0.98,-0.89 c 2.13,0.37 5.83,-0.14 5.47,3.1 c 0.17,4.73 0.4,5.65 -4.28,6.82 c -0.07,1.72 -0.35,3.42 -0.85,5.1 c -1.08,1.18 -2.12,-0.14 -1.99,-1.35 Z M 264.66,167.04 c -0.14,0.85 0.17,1.46 0.92,1.84 c 1.98,0.61 2.13,-7.59 -0.55,-5.24 c -0.36,1.1 -0.48,2.23 -0.37,3.4 Z M 196.85,175.98 c 0.83,-1.21 1.7,-1.23 2.61,-0.07 c 0.54,2.6 6.21,11 3.88,12.88 c -2.1,0.29 -5.68,-10.71 -6.49,-12.81 Z M 311.85,186.94 c 0.11,-1.44 0.41,-4.41 2.54,-3.95 c 1.52,0.97 -0.46,2.91 -0.21,4.29 c 1.66,1.51 2.15,-1.6 2.34,-2.64 c -0.62,-1.95 -1.03,-3.95 -1.26,-5.98 c 1.31,-7.66 10.75,-2.83 6,2.21 c -0.82,0.35 -1.47,0.16 -1.95,-0.56 c -0.18,-1.07 1.68,-3.37 -0.48,-3.06 c -0.73,0.95 -1,2.04 -0.83,3.25 c 2.03,4.35 1.04,11.76 -5.29,8.24 c -0.48,-0.5 -0.77,-1.1 -0.86,-1.8 Z M 386.8,248.96 c 1.16,0.26 3.13,-0.65 1.64,-1.86 c -1,-0.01 -1.82,0.36 -2.46,1.11 c -1.56,3.59 -1.34,5.59 -5.62,6.64 c -4.88,0.29 -4.9,-6.74 0.18,-6.89 c 1.2,0.18 1.42,0.75 0.66,1.7 c -0.97,0.43 -1.74,1.07 -2.33,1.94 c -0.14,2.23 2.85,-0.18 3.55,-0.62 c 0.76,-1.62 1.5,-3.26 2.21,-4.91 c 3.32,-3.09 7.31,-1.22 6.29,3.39 c -1.35,1.94 -4.42,3.4 -4.12,-0.5 Z M 382.68,265.99 c 0.18,-1.07 0.77,-1.79 1.79,-2.16 c 3.36,-1.08 6.73,-2.11 10.12,-3.09 c 2.19,-0.3 1.88,1.92 0.36,2.73 c -3.44,0.91 -6.89,1.86 -10.34,2.85 c -1.36,0.99 0.53,1.95 1.75,1.39 c 3.1,-0.77 6.15,-1.69 9.17,-2.73 c 1.2,-0.37 3.01,0.45 1.74,1.72 c -3.82,1.47 -7.74,2.65 -11.75,3.53 c -2.59,-0.06 -2.79,-2.16 -2.84,-4.24 Z"/></g>
<g><path fill="#f2efe4" d="M 326.26,195.04 c 1.44,-1.76 6.25,-12.01 8.12,-11.84 c 2.58,1.77 -4.69,9.92 -5.4,12.24 c -0.71,1.09 -2.57,1.05 -2.72,-0.4 Z"/></g>
<g><path fill="#707774" d="M 144.09,222.09 c 1.87,0.28 3.44,1.13 4.71,2.53 c 0.1,0.84 -0.28,1.28 -1.13,1.32 c -1.34,-1.16 -2.53,-2.44 -3.58,-3.85 Z"/></g>
<g><path fill="#797d78" d="M 231.95,171.85 c -0.56,-0.21 -0.84,-0.63 -0.83,-1.28 c 0.09,-1.83 0.42,-1.87 1,-0.12 c 0.03,0.48 -0.03,0.94 -0.17,1.4 Z"/></g>
<g><path fill="#cda777" stroke="#cda777" stroke-width="0.5" d="M 364.08,310.68 c 2.63,0.01 5.27,0.1 7.9,0.26 c 22.72,2.11 41.61,11.72 56.66,28.81 c 1.57,1.74 2.95,3.6 4.14,5.57 c -0.26,0.25 -0.55,0.27 -0.88,0.07 c -27.68,-16.41 -66.05,-16.58 -95.56,-4.7 c -36.82,12.6 -96.58,43.66 -134.61,27.99 c -22.02,-8.94 -19.56,-37.15 4.44,-42.01 c 0.8,-0.43 0.9,-0.94 0.29,-1.55 c -21.9,-3.75 -43.29,9.17 -64.45,13.37 c -25.04,6.18 -49.05,0.99 -70.85,-12.15 c -0.77,-0.45 -1.36,-1.05 -1.8,-1.81 c 0.27,-0.35 0.63,-0.5 1.09,-0.44 c 25.24,0.56 50.51,-1.76 72.56,-15.1 c 3,-1.81 5.92,-3.71 8.76,-5.72 c 28.32,-20.06 45.33,-48.12 81.21,-56.82 c 31.47,-8.33 60.14,5.19 70.99,36.19 c 0.17,0.58 0.04,1.05 -0.41,1.41 c -2.53,-2.14 -5.1,-4.25 -7.72,-6.33 c -37.77,-28.52 -66.41,22.57 -28.09,36.91 c 31.59,13.34 64.04,-4.07 96.33,-3.95 Z M 101.66,330.68 c 0.28,0.84 0.87,1.27 1.76,1.31 c 15.65,1.68 29.73,0.91 44.89,-3.39 c 25.91,-8.24 62.04,-23.93 82.9,2.75 c 1.92,2.63 8.24,13.66 6.2,16.37 c -0.55,-0.69 -1.03,-1.43 -1.46,-2.23 c -3.1,-3.66 -6.78,-6.59 -11.04,-8.77 c -29.02,-12.69 -43.58,21.59 -11.78,26.35 c 63.86,8.22 116.34,-46.41 181.4,-38.09 c 0.5,0.01 0.93,-0.15 1.29,-0.49 c -3.27,-1.1 -6.61,-2.03 -10.01,-2.79 c -13.28,-2.48 -26.49,-2.15 -39.63,0.99 c -28.32,7.21 -54.41,15.87 -84.17,10.72 c -61.07,-11.21 -45.12,-94.92 18.66,-72.19 c 0.81,-0.85 -0.79,-1.53 -1.34,-1.9 c -9.48,-5.55 -19.7,-7.86 -30.67,-6.95 c -36.52,3.37 -55.02,27 -80.55,49.32 c -16.51,14.3 -44.72,27.82 -66.45,28.99 Z M 231.2,292 c 2.01,25.03 23.96,34.44 46.39,34.75 c 0.45,0 0.86,-0.12 1.23,-0.36 c -0.78,-0.06 -1.57,-0.08 -2.37,-0.08 c -3.13,-0.91 -6.26,-1.89 -9.36,-2.93 c -21.36,-7.33 -33.3,-28.78 -19.29,-49.04 c 2.26,-2.78 4.65,-5.42 7.18,-7.92 c -0.46,-1.12 -1.58,-0.33 -2.44,-0.39 c -13.32,3.52 -20.44,12.17 -21.34,25.97 Z"/></g>
<g><path fill="#2a6689" stroke="#2a6689" stroke-width="0.5" d="M 371.98,310.94 c -2.63,-0.16 -5.27,-0.25 -7.9,-0.26 c 1.51,-7.73 -0.84,-21.62 -2.76,-29.49 c -31.45,-116.67 -202.33,-98.27 -210.71,20.52 c -0.07,0.89 0.31,1.42 1.16,1.56 c -2.84,2.01 -5.76,3.91 -8.76,5.72 c -0.45,-20.61 4.56,-39.8 15.01,-57.59 c 59.59,-101.03 217.64,-60.22 213.96,59.54 Z"/></g>
<g><path fill="#3d4f52" d="M 264.66,167.04 c -0.11,-1.17 0.01,-2.3 0.37,-3.4 c 2.68,-2.35 2.53,5.85 0.55,5.24 c -0.75,-0.38 -1.06,-0.99 -0.92,-1.84 Z M 132.92,236 c 0.5,-1.24 5.62,1.18 4.35,2.89 c -1.44,-0.03 -4.14,-1.3 -4.35,-2.89 Z M 118.92,269.02 c 1.17,-1.11 4.01,-0.35 4.03,1.45 c -1.16,1.14 -3.98,0.33 -4.03,-1.45 Z"/></g>
<g><path fill="#1e373f" d="M 361.01,204.04 c 0.97,0.92 1.96,1.83 2.98,2.72 c -2.65,0.61 -6.72,5.86 -8.97,7.71 c -1.77,0.79 -2.27,0.29 -1.5,-1.5 c 2.4,-2.27 4.78,-4.55 7.16,-6.84 c 0.45,-0.64 0.56,-1.34 0.33,-2.09 Z"/></g>
<g><path fill="#36474a" d="M 395.01,282 c 0.65,-1.85 5.06,-1.68 3.81,0.16 c -0.83,0.89 -3.49,1.43 -3.81,-0.16 Z"/></g>
<g><path fill="#475657" d="M 170.35,196.33 c 0.63,0.91 4.15,2.12 2.99,3.58 c -1.9,0.06 -2.31,-2.25 -2.99,-3.58 Z"/></g>
<g><path fill="#243c43" d="M 386.8,248.96 c -0.27,-0.25 -0.54,-0.5 -0.82,-0.75 c 0.64,-0.75 1.46,-1.12 2.46,-1.11 c 1.49,1.21 -0.48,2.12 -1.64,1.86 Z"/></g>
</svg>
